<svg width="820" height="312" viewBox="0 0 820 312" fill="none" xmlns="http://www.w3.org/2000/svg">
<g clip-path="url(#clip0_1_2)">
<rect width="820" height="312" fill="black"/>
<path d="M178.25 222.25C171.75 228.583 164.167 231.75 155.5 231.75C144.667 231.75 135.917 227.667 129.25 219.5C124.917 213.833 122.75 207.417 122.75 200.25C122.917 190.917 127 182.75 135 175.75L120.5 159.25C107.5 170.25 100.917 183.75 100.75 199.75C100.75 216.75 107.333 230.5 120.5 241C130.667 249 142.25 253 155.25 253C169.583 252.833 182.083 248 192.75 238.5L178.25 222.25ZM190.5 118.5C189.5 110.833 186 104.917 180 100.75C177.333 98.9167 174.583 97.75 171.75 97.25V76.5C185.417 78.3333 196.083 85.0833 203.75 96.75C207.083 101.917 209.333 107.417 210.5 113.25L190.5 118.5ZM158 97.25C151 98.0833 145.667 101.75 142 108.25C140.167 111.917 139.25 115.833 139.25 120C139.25 125.5 142.25 131.667 148.25 138.5C149.083 139.5 149.667 140.167 150 140.5L202.25 197.5C208.417 190.833 212.417 182.25 214.25 171.75C214.583 169.917 214.75 168.25 214.75 166.75H236.75C235.75 184.917 229.333 200.917 217.5 214.75L244.75 245L222.25 251L134 153.5C125.667 144 120.833 135.75 119.5 128.75C119 125.917 118.75 123 118.75 120C118.75 105.833 124.417 94.4167 135.75 85.75C142.25 80.75 149.667 77.6667 158 76.5V97.25Z" fill="#4F4F4F"/>
<path d="M181.448 263V196.76H213.032C223.08 196.76 228.104 201.816 228.104 211.928V224.504C228.104 234.552 223.08 239.576 213.032 239.576H191.144V263H181.448ZM191.144 230.744H212.936C216.584 230.744 218.408 228.92 218.408 225.272V210.968C218.408 207.384 216.584 205.592 212.936 205.592H191.144V230.744ZM240.376 248.216V227.576C240.376 217.784 245.272 212.888 255.064 212.888H267.544C277.336 212.888 282.232 217.784 282.232 227.576V241.4H249.688V249.176C249.688 252.952 251.576 254.84 255.352 254.84H280.312V259.736L275.992 263H255.064C245.272 263 240.376 258.072 240.376 248.216ZM249.688 234.104H272.92V226.616C272.92 222.904 271.064 221.048 267.352 221.048H255.352C251.576 221.048 249.688 222.904 249.688 226.616V234.104ZM296.073 263V218.84C298.313 214.872 302.569 212.888 308.841 212.888H318.729L323.145 216.152V221.048H310.665C308.169 221.048 306.409 221.688 305.385 222.968V263H296.073ZM333.113 263V212.888H390.041C399.833 212.888 404.729 217.784 404.729 227.576V263H395.417V226.616C395.417 222.904 393.561 221.048 389.849 221.048H373.625V263H364.217V221.048H342.425V263H333.113ZM418.979 203.864V193.688H428.963V203.864H418.979ZM419.363 263V212.888H428.675V263H419.363ZM441.724 259.736V254.84H463.9C467.676 254.84 469.564 252.92 469.564 249.08C469.564 245.112 468.028 242.872 464.956 242.36L453.916 240.536C445.788 239.128 441.724 234.648 441.724 227.096C441.724 217.624 446.652 212.888 456.508 212.888H472.156L476.572 216.152V221.048H456.7C452.86 221.048 450.94 222.968 450.94 226.808C450.94 230.392 452.54 232.472 455.74 233.048L466.876 234.872C474.876 236.216 478.876 240.824 478.876 248.696C478.876 258.232 473.916 263 463.996 263H446.14L441.724 259.736ZM489.912 259.736V254.84H512.088C515.864 254.84 517.752 252.92 517.752 249.08C517.752 245.112 516.216 242.872 513.144 242.36L502.104 240.536C493.976 239.128 489.912 234.648 489.912 227.096C489.912 217.624 494.84 212.888 504.696 212.888H520.344L524.76 216.152V221.048H504.888C501.048 221.048 499.128 222.968 499.128 226.808C499.128 230.392 500.728 232.472 503.928 233.048L515.064 234.872C523.064 236.216 527.064 240.824 527.064 248.696C527.064 258.232 522.104 263 512.184 263H494.328L489.912 259.736ZM539.635 203.864V193.688H549.619V203.864H539.635ZM540.019 263V212.888H549.331V263H540.019ZM563.533 248.216V227.576C563.533 217.784 568.429 212.888 578.221 212.888H591.661C601.453 212.888 606.349 217.784 606.349 227.576V248.216C606.349 258.072 601.453 263 591.661 263H578.221C568.429 263 563.533 258.072 563.533 248.216ZM572.845 249.176C572.845 252.952 574.733 254.84 578.509 254.84H591.469C595.181 254.84 597.037 252.952 597.037 249.176V226.616C597.037 222.904 595.181 221.048 591.469 221.048H578.509C574.733 221.048 572.845 222.904 572.845 226.616V249.176ZM620.551 263V212.888H647.719C657.511 212.888 662.406 217.784 662.406 227.576V263H653.095V226.616C653.095 222.904 651.239 221.048 647.527 221.048H629.863V263H620.551ZM675.068 259.736V254.84H697.244C701.02 254.84 702.908 252.92 702.908 249.08C702.908 245.112 701.372 242.872 698.3 242.36L687.26 240.536C679.132 239.128 675.068 234.648 675.068 227.096C675.068 217.624 679.996 212.888 689.852 212.888H705.5L709.916 216.152V221.048H690.044C686.204 221.048 684.284 222.968 684.284 226.808C684.284 230.392 685.884 232.472 689.084 233.048L700.22 234.872C708.22 236.216 712.22 240.824 712.22 248.696C712.22 258.232 707.26 263 697.34 263H679.484L675.068 259.736Z" fill="#27AE60"/>
<path d="M58.448 108V41.76H90.032C100.08 41.76 105.104 46.816 105.104 56.928V67.584C105.104 75.776 101.744 80.576 95.024 81.984L107.024 105.792L105.872 108H97.616L84.752 82.656H68.144V108H58.448ZM68.144 73.824H89.936C93.584 73.824 95.408 72 95.408 68.352V55.968C95.408 52.384 93.584 50.592 89.936 50.592H68.144V73.824ZM118.314 93.216V72.576C118.314 62.784 123.21 57.888 133.002 57.888H146.442C156.234 57.888 161.13 62.784 161.13 72.576V93.216C161.13 103.072 156.234 108 146.442 108H133.002C123.21 108 118.314 103.072 118.314 93.216ZM127.626 94.176C127.626 97.952 129.514 99.84 133.29 99.84H146.25C149.962 99.84 151.818 97.952 151.818 94.176V71.616C151.818 67.904 149.962 66.048 146.25 66.048H133.29C129.514 66.048 127.626 67.904 127.626 71.616V94.176ZM174.948 92.928V36.96H184.26V93.888C184.26 98.176 186.436 100.48 190.788 100.8V108.864C180.228 108.864 174.948 103.552 174.948 92.928ZM201.001 93.216V72.576C201.001 62.784 205.897 57.888 215.689 57.888H228.169C237.961 57.888 242.857 62.784 242.857 72.576V86.4H210.313V94.176C210.313 97.952 212.201 99.84 215.977 99.84H240.937V104.736L236.617 108H215.689C205.897 108 201.001 103.072 201.001 93.216ZM210.313 79.104H233.545V71.616C233.545 67.904 231.689 66.048 227.977 66.048H215.977C212.201 66.048 210.313 67.904 210.313 71.616V79.104ZM255.162 104.736V99.84H277.338C281.114 99.84 283.002 97.92 283.002 94.08C283.002 90.112 281.466 87.872 278.394 87.36L267.354 85.536C259.226 84.128 255.162 79.648 255.162 72.096C255.162 62.624 260.09 57.888 269.946 57.888H285.594L290.01 61.152V66.048H270.138C266.298 66.048 264.378 67.968 264.378 71.808C264.378 75.392 265.978 77.472 269.178 78.048L280.314 79.872C288.314 81.216 292.314 85.824 292.314 93.696C292.314 103.232 287.354 108 277.434 108H259.578L255.162 104.736Z" fill="#EB5757"/>
</g>
<defs>
<clipPath id="clip0_1_2">
<rect width="820" height="312" fill="white"/>
</clipPath>
</defs>
</svg>
