<svg width="256" height="256" viewBox="0 0 256 256" fill="none" xmlns="http://www.w3.org/2000/svg">
    <rect width="256" height="256" fill="white"/>
    <path
        d="M129.962 220.84C116.394 220.84 103.21 218.835 90.41 214.824C77.61 210.813 66.7727 205.011 57.898 197.416L77.866 165.672C81.6207 169.683 86.3993 173.139 92.202 176.04C98.0047 178.941 104.191 181.203 110.762 182.824C117.418 184.36 123.861 185.128 130.09 185.128C138.879 185.128 146.005 183.677 151.466 180.776C157.013 177.789 159.786 173.48 159.786 167.848C159.786 163.24 157.781 159.357 153.77 156.2C149.845 153.043 142.463 150.013 131.626 147.112L116.266 142.76C97.834 137.64 84.5647 130.643 76.458 121.768C68.3513 112.893 64.298 102.227 64.298 89.768C64.298 81.7467 66.0047 74.3653 69.418 67.624C72.8313 60.7973 77.61 54.9093 83.754 49.96C89.898 44.9253 97.1087 41.0427 105.386 38.312C113.749 35.496 122.837 34.088 132.65 34.088C146.218 34.088 158.805 36.0933 170.41 40.104C182.101 44.0293 191.487 49.4053 198.57 56.232L177.834 86.952C174.591 83.5387 170.581 80.552 165.802 77.992C161.023 75.432 155.818 73.4267 150.186 71.976C144.554 70.5253 138.879 69.8 133.162 69.8C127.53 69.8 122.623 70.5253 118.442 71.976C114.261 73.4267 110.975 75.5173 108.586 78.248C106.282 80.8933 105.13 84.0507 105.13 87.72C105.13 90.7067 105.983 93.224 107.69 95.272C109.482 97.2347 112.426 99.112 116.522 100.904C120.703 102.696 126.335 104.659 133.418 106.792L149.034 111.4C167.381 116.776 180.65 123.517 188.842 131.624C197.034 139.731 201.13 150.269 201.13 163.24C201.13 174.589 198.229 184.616 192.426 193.32C186.623 201.939 178.389 208.68 167.722 213.544C157.141 218.408 144.554 220.84 129.962 220.84Z"
        fill="black"/>
</svg>
